<?xml version="1.0" standalone="no"?>
<!DOCTYPE svg PUBLIC "-//W3C//DTD SVG 20010904//EN"
 "http://www.w3.org/TR/2001/REC-SVG-20010904/DTD/svg10.dtd">
<svg version="1.0" xmlns="http://www.w3.org/2000/svg"
 width="733.000000pt" height="729.000000pt" viewBox="0 0 733.000000 729.000000"
 preserveAspectRatio="xMidYMid meet">

<g transform="translate(0.000000,729.000000) scale(0.100000,-0.100000)"
fill="#000000" stroke="none">
<path d="M472 6498 l3 -343 340 0 340 0 3 343 2 342 -345 0 -345 0 2 -342z
m571 246 c15 -6 17 -29 17 -250 l0 -244 -247 2 -248 3 -3 239 c-2 168 1 242 9
246 14 9 449 13 472 4z"/>
<path d="M668 6502 c-2 -79 -1 -146 1 -148 2 -2 69 -4 148 -4 l144 0 -3 146
-3 147 -142 1 -142 1 -3 -143z"/>
<path d="M1260 6795 l0 -44 93 -3 92 -3 3 -47 3 -48 -95 0 -96 0 0 -50 0 -50
95 0 95 0 0 50 0 50 50 0 50 0 0 -50 0 -50 100 0 100 0 0 -50 0 -50 145 0 145
0 0 50 0 50 -145 0 -145 0 0 50 0 50 145 0 145 0 0 95 0 95 -44 0 -45 0 -3
-47 -3 -48 -95 0 -95 0 -3 48 -3 47 -245 0 -244 0 0 -45z m388 -97 c3 -40 0
-47 -18 -53 -11 -4 -34 -4 -50 0 -28 6 -30 10 -30 49 0 24 3 45 6 48 3 3 24 5
47 4 l42 -1 3 -47z"/>
<path d="M2538 6793 l-3 -48 -97 -3 -98 -3 0 -44 0 -45 -50 0 -50 0 0 45 0 45
-49 0 -50 0 -3 -47 -3 -48 -44 0 c-50 0 -56 -9 -47 -61 l7 -34 144 0 145 0 0
-49 0 -50 -47 -3 -48 -3 -3 -47 -3 -48 200 0 201 0 0 -195 0 -195 44 0 45 0 3
48 3 47 45 0 45 1 3 46 3 47 -48 3 -48 3 -3 148 -3 147 -44 0 c-39 0 -45 3
-51 25 -3 14 -3 36 0 50 6 22 12 25 51 25 l44 0 3 -47 3 -48 98 -3 98 -3 -3
48 -3 48 -47 3 -48 3 0 50 0 49 100 0 100 0 0 45 0 46 -97 -3 -98 -3 -3 -42
c-2 -24 -6 -44 -10 -44 -11 -2 -45 -2 -69 -1 -20 2 -23 7 -23 47 l0 45 -44 0
c-49 0 -56 9 -51 64 l3 36 -48 0 -49 0 -3 -47z m0 -195 l3 -48 -50 0 -51 0 0
51 0 50 48 -3 47 -3 3 -47z"/>
<path d="M3030 6795 l0 -45 90 0 c50 0 93 0 98 0 4 0 7 19 7 43 l0 42 -97 3
-98 3 0 -46z"/>
<path d="M3620 6795 c0 -29 4 -45 13 -46 79 -4 171 -3 179 2 5 3 8 24 6 45
l-3 39 -97 3 -98 3 0 -46z"/>
<path d="M4217 6834 c-4 -4 -7 -47 -7 -95 0 -86 -1 -89 -25 -95 -14 -3 -36 -3
-50 0 -22 6 -25 12 -25 51 l0 45 -145 0 -145 0 0 -95 0 -95 50 0 50 0 0 50 0
50 44 0 c48 0 56 -9 56 -65 0 -33 1 -34 47 -37 l48 -3 0 -45 0 -45 98 -3 98
-3 -3 48 -3 48 -47 3 -48 3 0 50 0 49 99 0 100 0 3 48 c3 46 4 47 38 48 62 2
61 1 58 47 l-3 42 -141 3 c-77 1 -143 -1 -147 -4z"/>
<path d="M4900 6746 c0 -92 -1 -94 -25 -100 -14 -4 -36 -4 -50 0 -22 5 -25 12
-25 50 l0 44 -45 0 -45 0 0 -95 0 -95 45 0 44 0 3 -97 3 -98 48 -3 47 -3 0
-49 0 -49 -47 -3 -48 -3 -3 -42 c-3 -38 0 -43 21 -48 14 -4 36 -5 48 -3 21 3
24 9 27 51 l3 47 49 0 49 0 3 -47 3 -48 45 0 45 0 3 47 3 47 47 3 47 3 3 48 3
47 45 0 c24 0 44 3 45 8 6 41 5 152 -2 170 -7 18 -16 22 -49 22 l-40 0 0 50 0
50 50 0 50 0 0 -50 0 -50 95 0 95 0 0 49 0 50 -82 0 c-46 -1 -89 0 -95 0 -9 1
-13 17 -13 46 l0 45 -50 0 -50 0 0 50 0 50 -49 0 -50 0 -3 -47 -3 -48 -45 0
-45 0 -3 48 -3 47 -50 0 -49 0 0 -94z m198 -198 l3 -98 49 0 50 0 0 -50 0 -50
-50 0 -50 0 0 50 0 50 -49 0 -50 0 -3 48 -3 47 -47 3 -48 3 0 50 0 50 98 -3
97 -3 3 -97z"/>
<path d="M5399 6836 c-2 -3 -3 -24 -1 -48 l4 -43 91 0 92 1 3 47 3 47 -94 0
c-51 0 -96 -2 -98 -4z"/>
<path d="M5692 6793 l3 -47 45 0 45 0 3 47 3 47 -51 0 -51 0 3 -47z"/>
<path d="M5892 6794 c3 -43 5 -48 31 -51 46 -6 69 13 65 55 -3 37 -4 37 -51
40 l-48 3 3 -47z"/>
<path d="M6185 6827 c-3 -6 -4 -161 -3 -342 l3 -330 325 -3 c179 -1 334 0 345
2 20 5 20 12 17 346 l-3 340 -340 0 c-263 0 -341 -3 -344 -13z m581 -84 c12
-4 14 -42 14 -235 -1 -127 -4 -236 -7 -244 -4 -11 -49 -14 -249 -14 l-244 0 0
243 c0 134 3 246 6 250 8 7 460 8 480 0z"/>
<path d="M6387 6643 c-4 -3 -7 -71 -7 -150 l0 -144 148 3 147 3 2 133 c1 73 0
139 -4 147 -4 12 -31 15 -142 15 -76 0 -141 -3 -144 -7z"/>
<path d="M3330 6595 l0 -145 45 0 c29 0 45 -4 45 -12 2 -287 1 -470 -3 -474
-2 -3 -23 -6 -46 -7 l-41 -1 0 -48 0 -48 45 0 45 0 0 50 0 51 98 -3 97 -3 3
-47 3 -48 100 0 99 0 0 51 0 50 48 -3 47 -3 3 -47 3 -47 -48 -3 -48 -3 -3 -47
-3 -48 50 0 51 0 0 -50 0 -50 -50 0 -51 0 3 -147 3 -148 45 0 45 0 0 -47 c0
-27 -3 -48 -7 -48 -5 0 -26 0 -48 0 l-40 0 0 50 c0 49 -1 50 -25 44 -14 -3
-36 -3 -50 0 -24 6 -24 6 -27 149 l-3 142 -45 0 -45 0 -3 -47 -3 -48 -50 0
-49 0 0 -100 0 -100 -84 0 c-46 0 -92 3 -101 6 -14 6 -16 24 -15 128 1 66 1
131 1 144 -1 19 -6 22 -45 22 l-45 0 -3 48 -3 47 -147 3 -147 3 -3 47 c-3 41
-6 47 -27 50 -12 2 -34 1 -47 -2 l-24 -6 0 -195 0 -195 -94 0 c-111 0 -106 -5
-104 115 l2 80 -47 3 -47 3 0 -100 0 -101 50 0 50 0 0 -44 c0 -48 -9 -56 -66
-56 -34 0 -34 0 -34 -45 0 -48 4 -45 -67 -48 l-28 -1 -5 144 -5 145 -47 3 -47
3 -3 -48 -3 -48 -47 -3 -48 -3 0 -45 c0 -47 -4 -45 70 -48 23 -1 25 -5 25 -50
0 -48 -1 -50 -30 -49 -66 1 -65 0 -65 47 l0 44 -46 4 c-25 2 -47 1 -50 -1 -2
-2 -4 -24 -4 -47 l0 -43 -47 -3 -48 -3 1 -45 1 -45 97 -3 96 -3 0 -49 0 -50
50 0 50 0 0 51 0 50 48 -3 47 -3 3 -97 3 -98 -101 0 -101 0 3 -47 3 -48 48 -3
47 -3 0 -95 0 -94 30 -1 c17 -1 38 -2 48 -3 15 -1 17 11 20 97 l3 97 49 0 50
0 0 -194 0 -195 48 -3 47 -3 3 -47 3 -48 -50 0 -51 0 0 -50 0 -50 50 0 50 0 0
-50 0 -50 -200 0 -200 0 0 49 0 50 48 3 47 3 0 45 0 45 -95 0 -95 0 -3 -97 -3
-97 -47 -3 -47 -3 -5 -45 -5 -45 -43 0 -42 0 0 -47 c0 -50 9 -57 63 -50 25 4
27 8 27 51 l0 46 197 -2 198 -2 3 -95 3 -95 47 -3 47 -3 3 -47 3 -48 49 0 49
0 -3 38 c-5 55 1 62 50 62 41 0 44 -2 44 -27 0 -52 11 -73 36 -73 l24 0 0 195
0 195 -30 0 -31 0 3 98 3 97 28 3 c15 2 27 8 27 15 0 6 9 30 21 53 13 28 19
57 17 86 l-3 43 -45 0 -45 1 -3 47 -3 47 -43 0 c-48 0 -52 6 -52 60 1 35 2 35
48 38 l47 3 3 47 3 47 48 3 47 3 0 50 0 49 -95 0 -95 0 0 50 0 50 45 0 44 0 3
148 3 147 47 2 47 2 3 -147 3 -147 48 -3 47 -3 0 -50 0 -49 51 0 50 0 -3 48
-3 47 -48 3 -48 3 3 147 c2 109 6 147 16 148 6 1 28 2 47 3 35 1 35 2 35 45
l0 45 -47 3 -48 3 -3 98 -3 97 50 0 50 0 3 -47 3 -48 48 -3 47 -3 0 -144 0
-144 98 -3 97 -3 0 -145 0 -145 -47 -3 c-46 -3 -48 -2 -49 25 0 15 -1 60 -2
98 l-2 70 -47 3 -48 3 0 -100 0 -101 51 0 50 0 -3 -47 -3 -48 -147 -3 -148 -3
0 -94 0 -95 50 0 50 0 0 45 0 44 148 3 147 3 0 45 0 45 48 3 c33 2 47 -1 48
-10 0 -7 2 -49 3 -93 2 -44 4 -82 5 -85 0 -3 21 -4 46 -2 l45 4 0 43 0 44 48
3 47 3 3 48 3 47 50 0 50 0 -3 -97 -3 -98 -97 -3 -98 -3 0 -44 0 -45 -129 0
c-71 0 -136 -3 -145 -6 -13 -5 -16 2 -16 45 l0 51 -50 0 -50 0 0 -45 0 -44
-97 -3 -98 -3 -3 -27 -3 -28 295 0 296 0 0 31 c0 30 1 30 48 27 43 -3 47 -5
50 -30 3 -26 6 -28 52 -28 46 0 49 2 52 28 3 26 4 27 78 30 99 4 120 -2 120
-33 0 -25 1 -25 95 -25 94 0 95 0 95 25 0 27 -24 38 -70 33 -23 -3 -25 0 -28
47 l-3 50 -44 -3 -45 -4 0 51 0 51 44 0 c25 0 47 3 49 8 2 4 2 26 -1 50 l-4
42 -44 0 -43 0 -3 48 -3 47 -97 3 -98 3 0 49 0 50 145 0 145 0 0 50 0 50 -45
0 -45 0 0 50 0 50 45 0 c38 0 45 -3 50 -23 4 -13 5 -27 4 -33 -7 -36 2 -44 45
-44 l44 0 4 -42 c3 -24 3 -46 1 -50 -2 -5 -24 -8 -49 -8 l-44 0 0 -100 0 -100
45 0 45 0 0 50 0 50 50 0 49 0 3 98 3 97 48 3 48 3 -3 47 -3 47 -95 1 -95 1
-3 52 -3 53 33 -3 c66 -4 68 -3 68 47 l0 45 -47 -3 -48 -3 -5 -45 -5 -45 -45
0 -45 0 -3 48 -3 47 -45 0 -44 0 0 100 0 100 45 0 45 0 0 50 0 50 -45 0 -45 0
0 51 0 50 48 -3 47 -3 3 -47 3 -48 44 0 44 0 3 48 3 47 45 0 45 0 3 -47 3 -47
-48 -3 -48 -3 0 -95 0 -95 148 -3 148 -3 -3 -47 -3 -47 -47 -3 -48 -3 0 -94 0
-94 98 -3 97 -3 3 -97 3 -97 -48 -3 -48 -3 -3 -47 -3 -48 -50 0 -49 0 0 -49 0
-50 -47 -3 -48 -3 -3 -47 -3 -48 -95 0 c-87 0 -94 -1 -95 -20 -1 -11 -2 -26
-3 -32 -5 -27 13 -42 50 -44 22 -1 42 -2 45 -3 3 0 4 -12 1 -26 -2 -13 -2 -35
1 -47 5 -19 13 -23 49 -23 39 0 43 -2 46 -27 3 -26 6 -28 52 -28 l49 0 3 78 3
77 48 3 47 3 0 44 0 44 48 3 47 3 3 47 3 47 47 3 47 3 3 147 3 147 45 3 46 3
0 75 c0 125 3 115 -44 115 l-43 0 -5 45 -5 45 -47 3 -48 3 0 49 0 49 48 3 47
3 0 45 0 45 -47 3 -47 3 -3 147 -3 147 -45 0 -45 0 -3 98 -3 97 36 1 c19 1 41
2 48 3 7 1 13 20 15 49 l3 47 50 0 49 0 0 -94 c0 -102 5 -110 64 -99 l26 5 0
144 0 144 -44 0 c-25 0 -47 3 -49 8 -2 4 -2 26 1 49 l4 42 46 3 c45 3 47 4 46
35 -2 65 0 64 -151 61 l-138 -3 -3 -47 -3 -47 48 -3 48 -3 3 -97 3 -98 -51 0
-50 0 0 -51 0 -50 -47 3 -48 3 -3 98 -3 98 -47 -3 -47 -3 -3 -98 -3 -98 -47 3
-47 3 -3 148 -3 147 -144 0 -144 0 -3 48 -3 47 -45 0 -45 0 -3 -47 -3 -48 -50
0 -49 0 0 145 0 145 -50 0 -50 0 0 -44 0 -44 -46 -4 c-25 -2 -47 -1 -50 1 -2
2 -4 24 -4 48 l0 43 -45 0 -45 0 0 -145z m488 -392 l-3 -148 -145 0 -145 0 -3
148 -3 147 151 0 151 0 -3 -147z m196 31 c3 -9 6 -53 6 -98 l0 -82 83 1 c45 0
88 -1 95 -3 7 -3 12 -21 12 -48 l0 -43 48 -3 47 -3 3 -47 3 -48 -35 0 c-19 0
-41 -3 -50 -6 -12 -5 -15 5 -18 48 l-3 53 -85 1 c-47 1 -91 2 -97 3 -8 1 -13
17 -13 46 l0 45 -45 0 -45 0 0 100 0 100 44 0 c31 0 46 -5 50 -16z m296 -524
l0 -50 -50 0 -50 0 0 50 0 50 50 0 50 0 0 -50z m-590 -441 l0 -98 -47 -3 -48
-3 -3 -48 -3 -48 -97 3 -97 3 0 95 0 95 48 3 47 3 0 -50 0 -51 50 0 50 0 0 93
c0 52 2 96 5 98 2 3 25 5 50 5 l45 0 0 -97z m-1082 -151 l3 -48 -49 0 c-49 0
-50 1 -54 33 -7 61 -1 68 50 65 l47 -3 3 -47z m1872 -198 l0 -50 -50 0 -50 0
0 50 0 50 50 0 50 0 0 -50z m-590 -100 l0 -50 -50 0 -50 0 0 50 0 50 50 0 50
0 0 -50z m-1190 -740 l0 -100 -44 0 c-24 0 -46 4 -48 10 -1 5 -2 50 0 100 l3
90 45 0 44 0 0 -100z"/>
<path d="M3622 6203 l3 -48 45 0 45 0 3 48 3 47 -51 0 -51 0 3 -47z"/>
<path d="M4510 6696 l0 -46 51 0 50 0 -3 43 -3 42 -47 3 -48 3 0 -45z"/>
<path d="M5990 6645 l0 -95 45 0 45 0 0 95 0 95 -45 0 -45 0 0 -95z"/>
<path d="M3135 6641 c-3 -2 -5 -24 -5 -47 l0 -43 -47 -3 -48 -3 -3 -48 -3 -48
98 3 98 3 3 75 c4 108 1 117 -48 116 -23 0 -43 -2 -45 -5z"/>
<path d="M5797 6644 c-4 -4 -7 -49 -7 -101 l0 -93 95 0 c106 0 112 4 101 65
-7 34 -9 35 -51 35 l-44 0 -3 47 -3 48 -41 3 c-22 1 -43 -1 -47 -4z"/>
<path d="M5597 6544 c-4 -4 -7 -27 -7 -50 l0 -43 -47 -3 -48 -3 -3 -47 -3 -48
-45 0 -45 0 3 -97 3 -97 40 -1 40 0 3 48 3 47 49 0 49 0 3 -97 3 -98 45 0 45
0 3 98 3 97 -51 0 -50 0 0 49 0 50 48 3 47 3 0 95 0 95 -40 3 c-23 2 -44 0
-48 -4z"/>
<path d="M1260 6401 l0 -50 48 -3 c46 -3 47 -3 48 -38 1 -60 1 -60 49 -60 l45
0 0 -51 0 -50 -47 3 -48 3 -3 48 -3 47 -45 0 -44 0 0 -94 c0 -79 3 -95 17
-100 9 -4 74 -6 143 -5 l125 1 3 -46 3 -46 100 0 99 0 0 145 0 145 50 0 49 0
3 -97 3 -96 50 -4 c28 -2 69 -1 93 2 l42 6 0 44 0 44 -47 3 -48 3 0 45 0 45
-49 5 -50 5 0 45 -1 45 -47 3 -48 3 0 -50 0 -51 -50 0 -49 0 -3 98 -3 97 -192
3 -193 2 0 -49z m290 -101 l0 -50 50 0 50 0 0 -51 0 -50 -47 3 -48 3 -3 48 -3
47 -50 0 -49 0 0 50 0 50 50 0 50 0 0 -50z"/>
<path d="M2937 6444 c-4 -4 -7 -49 -7 -101 l0 -93 -51 0 -50 0 3 -47 c3 -52
-4 -48 81 -52 13 -1 17 -10 17 -46 0 -40 3 -45 23 -46 78 -4 72 -8 75 44 l3
47 -50 0 -51 0 0 50 0 50 49 0 50 0 3 -47 3 -48 45 0 45 0 0 95 0 95 -47 3
-47 3 -3 47 -3 47 -40 3 c-23 2 -44 0 -48 -4z"/>
<path d="M4314 6437 c-3 -9 -4 -30 -2 -49 3 -32 4 -33 48 -33 l45 0 0 45 0 45
-43 3 c-30 2 -44 -1 -48 -11z"/>
<path d="M5990 6400 l0 -50 45 0 45 0 0 50 0 50 -45 0 -45 0 0 -50z"/>
<path d="M1950 6300 l0 -50 45 0 c40 0 45 -3 46 -22 1 -13 1 -27 0 -32 -1 -4
1 -17 4 -28 6 -16 14 -19 48 -16 l42 3 3 98 3 97 -96 0 -95 0 0 -50z"/>
<path d="M5788 6203 l-3 -148 -47 -3 -48 -3 0 -44 0 -44 48 -3 47 -3 0 -49 0
-49 -45 -1 -45 -1 -3 -47 -3 -47 -47 -3 -47 -3 0 -45 0 -45 45 0 45 0 3 48 3
47 50 0 49 0 0 -50 0 -50 -50 0 -50 0 0 -50 0 -50 -50 0 -50 0 0 51 0 50 -47
-3 -48 -3 0 -45 0 -45 47 -3 47 -3 3 -47 3 -47 48 -3 48 -3 -3 -47 -3 -47 -45
0 -45 0 -3 48 -3 47 -50 0 -49 0 0 -45 0 -45 38 -1 c20 -1 43 -2 50 -3 11 -1
13 -41 12 -198 l-1 -198 101 0 101 0 -3 -47 -3 -48 -145 0 -145 0 -3 48 -3 47
-44 0 -44 0 -3 -47 -3 -48 -97 -3 -98 -3 0 -50 0 -50 -97 3 -98 3 -3 48 -3 48
-47 -3 -47 -3 0 -144 0 -143 95 -2 95 -1 3 -47 3 -48 50 0 49 0 0 -49 0 -50
-47 -3 -48 -3 -3 -47 -3 -48 50 0 51 0 0 -101 0 -100 -47 3 -48 3 -3 48 -3 47
-49 0 -49 0 -3 -47 -3 -48 -45 0 -45 0 -3 48 -3 47 -50 0 -49 0 0 -51 0 -51
-45 4 c-25 2 -46 0 -48 -5 -1 -4 -1 -26 1 -50 l4 -42 44 3 44 4 0 -51 0 -51
50 0 49 0 3 -97 3 -98 48 -3 47 -3 0 198 0 198 50 0 49 0 3 -49 c3 -49 3 -49
38 -51 54 -2 60 3 60 51 l0 43 93 3 92 3 3 48 3 47 -45 0 c-30 0 -46 4 -47 13
0 6 -2 50 -2 97 l-2 85 97 3 97 3 3 97 3 97 45 0 45 0 5 -195 5 -195 48 -3 47
-3 0 -99 0 -99 -47 -3 -48 -3 0 -40 0 -40 47 -3 47 -3 3 48 3 48 95 0 95 0 3
-97 3 -98 -50 0 -50 0 -3 48 -3 47 -45 0 -45 0 -3 -47 -3 -48 50 0 51 0 0 -50
0 -50 50 0 50 0 0 -50 0 -51 -147 3 -148 3 -3 148 -3 148 -47 -3 -47 -3 -3
-148 -3 -148 -47 3 -47 3 -3 148 -3 148 -42 -3 c-42 -3 -42 -3 -47 -48 l-5
-45 -47 -3 -48 -3 0 -50 0 -49 -50 0 -50 0 0 -50 0 -50 -50 0 -50 0 0 -151 0
-150 -47 3 -48 3 -3 148 -3 147 -49 0 -50 0 0 50 0 50 -44 0 -45 0 -3 -90 c-2
-50 -1 -95 0 -100 2 -6 24 -10 48 -10 l44 0 0 -145 0 -145 198 -2 197 -3 3
-97 3 -97 47 -3 47 -3 3 -47 3 -48 95 0 94 0 0 -44 c0 -49 9 -56 66 -56 l35 0
-3 -97 -3 -98 -45 0 -45 0 -3 98 -3 97 -94 0 -94 0 -3 -47 -3 -48 -47 -3 -48
-3 0 -43 c0 -54 -5 -56 -116 -56 l-84 0 0 -144 0 -145 -47 -3 -48 -3 0 -45 0
-45 45 0 45 0 3 47 3 48 100 0 99 0 0 51 0 50 48 -3 47 -3 3 -97 3 -98 49 0
50 0 0 -100 c0 -75 3 -100 13 -99 6 1 27 1 45 0 31 -1 32 -2 32 -46 l0 -45 50
0 50 0 0 44 0 45 91 3 c50 2 95 0 101 -3 5 -3 8 -26 6 -50 l-3 -44 -97 -3 -98
-3 0 -44 0 -44 -47 -3 -48 -3 -3 -97 -3 -98 -44 0 -44 0 -3 -47 -3 -48 -47 -3
-47 -3 -3 48 -3 48 -47 3 -47 3 -3 97 -3 97 -95 0 -95 0 -3 -97 -3 -97 -47 -3
-47 -3 0 -95 0 -95 98 -3 97 -3 0 -94 0 -95 34 0 c64 0 66 -3 66 -106 l0 -94
-100 0 -100 0 0 50 0 50 51 0 50 0 -3 47 -3 46 -37 0 c-21 -1 -42 -2 -48 -2
-5 -1 -10 -21 -10 -46 l0 -45 -51 0 -50 0 3 48 3 47 48 3 47 3 0 44 0 44 -47
3 -48 3 -3 47 -3 48 -50 0 -49 0 0 -51 0 -50 -47 3 c-34 2 -48 7 -49 18 -1 8
-2 52 -3 98 l-1 82 -44 0 -45 0 -3 48 -3 47 -47 3 -47 3 -3 -98 -3 -98 -47 -3
-47 -3 -3 -47 -3 -47 -47 -3 -48 -3 0 -44 0 -44 148 -3 147 -3 3 -48 3 -47 44
0 44 0 3 48 3 47 48 3 47 3 0 -50 0 -51 -45 0 -45 0 0 -50 0 -50 -49 0 -50 0
-3 48 -3 47 -47 3 -48 3 0 -50 0 -51 50 0 50 0 0 -100 0 -100 145 0 145 0 0
-94 c0 -58 4 -96 11 -98 5 -2 28 -2 50 0 39 4 39 4 39 48 l0 43 48 3 47 3 3
47 3 48 50 0 49 0 0 -94 0 -94 45 -4 45 -3 0 47 0 48 50 0 50 0 0 49 0 50 -47
3 -48 3 0 45 0 45 148 3 147 3 0 49 0 50 -100 0 -100 0 0 50 0 50 -45 0 -45 0
0 51 c0 42 3 50 18 48 9 -1 29 -1 45 0 25 1 27 4 27 46 l0 45 -95 0 -95 0 0
50 0 50 144 0 144 0 4 -69 c2 -38 1 -82 -2 -97 -5 -26 -9 -29 -45 -30 l-40 0
-3 -47 -3 -47 45 0 46 0 0 50 0 50 50 0 50 0 0 44 0 45 48 3 47 3 3 47 3 48
50 0 49 0 0 -45 c0 -47 0 -47 60 -50 l35 -1 0 -49 0 -50 -45 -1 -45 0 -3 -47
-3 -46 -47 -3 -47 -3 0 -95 0 -95 45 0 45 0 3 98 3 98 97 -3 97 -3 3 -47 3
-47 -48 -3 -48 -3 -3 -47 -3 -47 48 -3 48 -3 0 -45 0 -45 -97 -3 -98 -3 0 -49
0 -50 51 0 50 0 -3 -47 -3 -48 -47 -3 -48 -3 0 -45 0 -44 101 0 c98 0 100 1
99 23 -1 12 -2 34 -1 50 l1 27 83 0 c45 0 88 -4 95 -9 9 -5 12 -24 10 -52 l-3
-44 -46 -3 -45 -3 2 -42 2 -42 145 -3 146 -3 3 48 3 48 96 3 97 3 -2 42 -1 42
-47 3 -48 3 0 50 0 49 -50 0 -50 0 0 49 0 50 48 3 47 3 3 47 3 47 47 3 c28 2
47 8 48 16 1 6 2 50 3 97 l1 85 50 0 50 0 0 44 c0 48 -11 56 -72 47 -26 -3
-28 -7 -28 -47 l0 -44 -50 0 -50 0 0 94 0 95 -47 3 -48 3 -3 47 -3 48 50 0 50
0 3 -48 3 -47 84 -3 c89 -3 105 3 107 41 3 59 -2 56 97 59 l92 3 3 48 3 47
-95 0 -95 0 -3 47 -3 48 -47 3 -47 3 -3 -48 -3 -48 -97 -3 -98 -3 0 -49 0 -50
-50 0 -50 0 0 -51 0 -50 -47 3 -48 3 -3 98 -3 97 -94 0 -95 0 0 -49 0 -50 48
-3 c41 -3 47 -6 50 -27 2 -12 1 -34 -2 -47 -6 -21 -12 -24 -51 -24 -29 0 -45
4 -46 13 0 6 -1 28 -2 47 -2 34 -3 35 -49 38 l-48 3 0 49 0 49 48 3 47 3 0 95
0 95 -45 0 -45 0 -3 -97 -3 -98 -49 0 -49 0 -3 47 -3 48 -45 0 -45 0 -3 -98
-3 -98 -47 3 -47 3 -3 47 -3 47 -47 3 -47 3 -3 47 -3 48 50 0 50 0 3 48 3 47
97 3 97 3 3 47 3 47 95 5 95 5 2 35 c1 19 2 41 2 48 1 8 17 12 46 12 39 0 45
-3 51 -25 3 -14 3 -36 0 -50 -6 -24 -5 -25 44 -25 l50 0 0 144 0 145 -47 3
-48 3 -3 48 -3 47 -44 0 -44 0 -3 -98 -3 -97 -47 -3 -48 -3 -2 198 -3 198 -48
3 -48 3 3 47 3 47 193 3 192 2 0 45 0 44 -142 3 -143 3 -5 145 -5 145 -47 3
-48 3 0 50 0 49 50 0 50 0 0 -49 0 -50 48 -3 47 -3 3 -48 3 -48 142 3 142 3 3
47 3 47 -98 3 -98 3 -3 48 -3 47 -94 0 -94 0 -3 48 -3 47 -95 0 -95 0 -3 -47
-3 -48 -50 0 -50 0 3 98 3 97 98 3 97 3 0 44 c0 53 14 60 93 46 4 0 7 -44 7
-97 l0 -95 48 3 47 3 5 95 5 95 90 0 90 0 3 -47 3 -47 -48 -3 -48 -3 1 -45 1
-45 146 -3 146 -3 3 -47 3 -47 95 0 95 0 0 45 0 45 -47 3 -47 3 -3 47 -3 47
-98 3 -98 3 3 47 3 47 45 0 45 0 3 48 c2 36 7 47 20 48 9 1 31 2 47 3 l30 1 3
98 3 97 49 0 49 0 3 -47 3 -48 48 -3 48 -3 -3 -47 -3 -47 -47 -3 -48 -3 0 -95
0 -95 48 3 47 3 5 45 c4 38 9 46 29 48 12 2 34 1 47 -2 21 -6 24 -12 24 -51
l0 -45 45 0 45 0 0 144 0 145 -47 3 -48 3 0 45 0 45 48 3 47 3 0 50 0 49 -145
0 -145 0 2 198 3 197 25 -2 c14 -1 35 0 48 3 22 5 23 8 21 97 l-2 92 47 3 46
3 0 50 0 49 -94 0 -95 0 -3 48 -3 47 -195 0 -195 0 0 -45 0 -45 97 -3 97 -3 3
-97 3 -97 48 -3 47 -3 0 -50 0 -49 -100 0 -100 0 0 -45 0 -45 84 0 c111 0 116
-2 116 -56 l0 -44 -122 -1 c-68 -1 -134 -2 -148 -3 l-25 -1 0 99 0 99 45 1 45
1 3 48 3 47 -146 0 -146 0 3 -47 3 -48 42 -3 c36 -3 44 -7 49 -28 3 -13 3 -35
0 -49 -6 -22 -12 -25 -51 -25 -33 0 -45 4 -46 15 0 8 -1 30 -2 48 l-1 32 -95
5 -96 5 -3 48 -3 47 94 0 c80 0 96 3 101 17 4 9 6 76 5 148 l-1 130 46 3 46 3
0 51 0 50 -45 -4 -45 -3 0 52 0 53 45 0 45 0 0 45 0 45 -95 0 -94 0 -3 -97
c-3 -98 -3 -98 -28 -95 -14 1 -35 0 -47 -3 -20 -5 -23 -12 -23 -50 l0 -45 -49
0 -50 0 -3 48 -3 47 -48 0 -48 0 3 50 3 50 48 3 47 3 0 45 c0 43 1 44 33 45
17 0 61 1 97 2 l65 2 0 95 0 95 -47 3 -48 3 0 49 0 49 48 3 47 3 0 45 0 45
-98 3 -98 3 3 47 3 47 48 3 47 3 0 94 0 94 48 3 47 3 3 48 3 47 43 0 c47 0 56
13 53 70 -2 22 -7 25 -49 28 l-48 3 0 49 0 49 48 3 47 3 0 45 0 45 -47 3 -48
3 -2 242 -3 242 -47 3 -47 3 -3 -148z m-488 -1477 l0 -45 48 -3 47 -3 3 -97 3
-98 -101 0 -100 0 0 145 0 145 50 0 50 0 0 -44z m588 -298 l3 -48 -50 0 -51 0
0 51 0 50 48 -3 47 -3 3 -47z m492 -788 l0 -151 -147 3 -148 3 -3 134 c-1 74
0 141 2 148 4 10 41 13 151 13 l145 0 0 -150z m-1085 -100 l0 -45 -47 -3 -48
-3 0 51 0 51 48 -3 47 -3 0 -45z m493 -97 l-3 -48 -47 -3 -48 -3 0 -50 0 -49
-50 0 -50 0 0 100 0 100 101 0 100 0 -3 -47z m-590 -100 l-3 -48 -47 -3 -48
-3 0 50 0 51 51 0 50 0 -3 -47z m202 -1 l0 -49 43 1 42 1 3 -47 c3 -48 3 -48
-30 -49 -18 -1 -39 -1 -45 0 -8 1 -13 -12 -14 -34 -1 -19 -2 -41 -3 -47 -1 -9
-18 -13 -49 -13 l-48 0 -2 143 -2 142 53 0 52 0 0 -48z m590 -2 l0 -50 -50 0
-50 0 0 50 0 50 50 0 50 0 0 -50z m-202 -537 l-3 -98 -45 0 -45 0 -3 98 -3 97
51 0 51 0 -3 -97z m-394 -215 c3 -13 6 -35 6 -50 0 -25 3 -27 48 -30 26 -2 46
-6 45 -10 -2 -5 -3 -71 -3 -149 l0 -140 -47 3 -48 3 -3 149 -3 148 -32 -6
c-17 -3 -38 -2 -46 3 -13 8 -23 77 -14 94 2 4 24 7 47 7 37 0 45 -4 50 -22z
m294 -130 l3 -48 50 0 49 0 0 -100 0 -101 -97 3 -98 3 0 45 0 45 48 3 47 3 0
50 0 49 -50 0 -50 0 0 43 c0 24 3 47 7 51 4 4 25 6 48 4 l40 -3 3 -47z m-98
-398 l0 -50 -50 0 -50 0 0 50 0 50 50 0 50 0 0 -50z m-390 -540 l0 -100 -50 0
-50 0 0 100 0 100 50 0 50 0 0 -100z m1178 -442 l3 -148 -151 0 -150 0 0 144
c0 106 3 146 13 150 6 2 73 4 147 3 l135 -2 3 -147z m-1478 -48 l0 -100 -50 0
-50 0 0 100 0 100 50 0 50 0 0 -100z m200 -150 l0 -50 -50 0 -50 0 0 50 0 50
50 0 50 0 0 -50z m1178 -197 l-3 -48 -47 -3 -48 -3 0 50 0 51 51 0 50 0 -3
-47z"/>
<path d="M6184 3676 c-3 -8 -4 -29 -2 -48 3 -32 5 -33 51 -36 l47 -3 0 50 0
51 -45 0 c-30 0 -47 -5 -51 -14z"/>
<path d="M6187 1123 c-3 -5 -4 -26 -3 -48 l1 -40 48 -3 47 -3 0 50 0 51 -44 0
c-25 0 -47 -3 -49 -7z"/>
<path d="M2240 6205 c0 -39 3 -45 24 -51 13 -3 35 -4 47 -2 21 3 24 9 27 51
l3 47 -50 0 -51 0 0 -45z"/>
<path d="M2442 6203 l3 -48 45 0 45 0 0 45 0 45 -48 3 -48 3 3 -48z"/>
<path d="M3230 6199 l0 -50 43 4 42 4 3 46 3 47 -45 0 -46 0 0 -51z"/>
<path d="M5200 6200 l0 -50 -49 0 -50 0 -3 -47 -3 -48 -198 -3 c-176 -2 -198
-4 -193 -18 3 -9 6 -29 6 -45 l0 -28 143 -3 142 -3 3 -47 3 -47 47 -3 47 -3 3
-47 3 -48 50 0 49 0 0 -50 0 -50 -51 0 -50 0 3 -47 3 -48 48 -3 47 -3 0 -95
c0 -103 -4 -98 68 -94 l32 2 0 -101 0 -101 95 0 95 0 0 45 c0 29 -5 46 -12 46
-7 1 -24 3 -38 4 -14 1 -31 3 -38 4 -8 0 -13 12 -12 29 5 66 3 69 -42 68 l-43
-1 -3 47 -3 47 93 3 93 3 3 47 3 47 -48 3 -48 3 0 45 0 45 48 3 47 3 0 50 0
49 -95 0 -95 0 0 114 c0 62 -3 128 -6 145 -6 29 -9 31 -50 31 l-44 0 0 50 0
50 43 0 c24 0 46 2 48 4 2 3 3 25 1 50 l-4 46 -44 0 -44 0 0 -50z"/>
<path d="M5990 6150 l0 -100 45 0 45 0 0 100 0 100 -45 0 -45 0 0 -100z"/>
<path d="M960 6005 l0 -45 100 0 100 0 0 -50 0 -50 45 0 45 0 0 50 c0 45 -2
49 -22 48 -63 -3 -67 0 -70 45 l-3 42 -97 3 -98 3 0 -46z"/>
<path d="M2142 6005 c2 -25 -1 -46 -7 -46 -5 -1 -48 -2 -95 -3 l-85 -1 -3 -98
-3 -97 146 0 145 0 0 -50 0 -50 -95 0 c-105 0 -95 7 -99 -70 -1 -23 -5 -25
-51 -25 l-50 0 -2 75 c-1 41 -2 85 -2 98 -1 21 -4 22 -96 22 l-94 0 -3 -97 -3
-98 -47 -3 -47 -3 -3 -47 -3 -47 -47 -3 -48 -3 0 -95 0 -94 100 0 100 0 0 51
0 50 48 -3 47 -3 3 -47 3 -48 44 0 44 0 3 93 3 92 95 5 95 5 3 48 3 47 50 0
49 0 0 49 0 50 48 3 47 3 3 48 3 47 50 0 49 0 0 -51 0 -50 48 3 c50 3 48 1 51
71 l1 27 95 0 95 0 0 50 0 50 -45 0 c-39 0 -45 3 -51 24 -3 13 -4 34 -2 47 3
22 0 24 -42 24 l-45 0 -5 -49 -5 -48 -95 -2 -95 -1 -3 -47 -3 -48 -50 0 -49 0
0 50 0 50 50 0 50 0 0 45 c0 39 -3 45 -24 51 -13 3 -30 5 -37 4 -34 -5 -39 1
-39 45 l0 45 -51 0 -51 0 4 -45z"/>
<path d="M2340 6005 l0 -46 97 3 97 3 2 43 1 42 -98 0 -99 0 0 -45z"/>
<path d="M3128 6003 l-3 -48 -95 0 -95 0 -3 -48 -3 -48 148 3 148 3 3 48 3 47
45 0 c46 0 46 0 47 60 1 25 0 25 -95 28 l-97 3 -3 -48z"/>
<path d="M6184 6008 l1 -43 48 -3 47 -3 0 45 0 46 -49 0 -49 0 2 -42z"/>
<path d="M6380 6005 l0 -45 50 0 50 0 0 45 0 45 -50 0 -50 0 0 -45z"/>
<path d="M6580 6005 l0 -46 47 3 47 3 0 40 0 40 -47 3 -47 3 0 -46z"/>
<path d="M6779 6038 c0 -7 -1 -49 -2 -93 l-1 -80 47 -3 47 -3 0 95 0 96 -45 0
c-29 0 -45 -4 -46 -12z"/>
<path d="M674 5951 c-2 -2 -4 -46 -4 -98 l0 -93 44 0 45 0 3 48 3 47 98 3 97
3 0 -151 0 -150 101 0 100 0 -3 -47 -3 -48 -47 -3 -48 -3 0 -44 0 -44 48 -3
47 -3 3 -47 3 -48 97 0 97 0 0 47 0 48 45 1 45 1 3 146 3 147 49 0 49 0 3 -47
3 -48 45 0 45 0 0 145 c0 145 0 145 -24 148 -12 2 -34 1 -47 -2 -21 -6 -24
-12 -24 -51 l0 -45 -95 0 c-105 0 -97 6 -99 -70 l-1 -25 -147 -3 -148 -3 0 50
0 50 48 3 c47 3 47 3 50 42 2 24 -2 42 -10 47 -7 5 -52 9 -100 9 l-87 0 -3 47
-3 47 -138 1 c-76 0 -141 -2 -143 -4z m682 -438 l-1 -48 -50 0 -50 0 -1 40 c0
22 1 43 3 48 2 4 26 7 53 7 l48 0 -2 -47z"/>
<path d="M1440 5950 l-84 -5 -1 -40 0 -40 98 -3 97 -3 0 45 c0 26 -5 45 -12
47 -7 2 -51 2 -98 -1z"/>
<path d="M1757 5954 c-4 -4 -7 -27 -7 -51 l0 -44 48 3 47 3 0 45 0 45 -40 3
c-23 2 -44 0 -48 -4z"/>
<path d="M5406 5953 c-3 -4 -6 -26 -6 -50 l0 -43 96 0 95 0 -3 48 -3 47 -86 2
c-48 1 -90 -1 -93 -4z"/>
<path d="M6092 5950 c-4 -3 -7 -47 -7 -97 l0 -93 98 0 98 0 -3 48 -3 47 -45 1
-45 0 -3 47 c-2 27 -8 48 -15 49 -32 4 -69 3 -75 -2z"/>
<path d="M6498 5952 c-14 -3 -18 -14 -18 -48 l0 -44 51 0 50 0 -3 46 c-3 44
-5 47 -33 48 -16 1 -38 1 -47 -2z"/>
<path d="M4610 5761 l0 -100 48 -3 47 -3 3 -97 3 -98 44 0 45 0 0 50 0 50 50
0 50 0 0 50 0 50 -51 0 -50 0 3 48 3 47 48 3 48 3 -3 47 -3 47 -142 3 -143 3
0 -100z"/>
<path d="M6680 5811 l0 -51 46 0 45 0 -3 48 -3 47 -42 3 -43 3 0 -50z"/>
<path d="M470 5710 l0 -50 95 0 95 0 0 50 0 50 -95 0 -95 0 0 -50z"/>
<path d="M765 5748 c-3 -8 -4 -75 -3 -149 l3 -134 45 0 45 0 0 145 0 145 -43
3 c-29 2 -44 -1 -47 -10z"/>
<path d="M3428 5753 c-2 -5 -3 -26 -2 -48 l1 -40 47 -3 46 -3 0 50 0 51 -44 0
c-25 0 -46 -3 -48 -7z"/>
<path d="M6387 5754 c-4 -4 -7 -27 -7 -50 l0 -43 -47 -3 -48 -3 0 -45 0 -45
148 -3 147 -3 0 -50 0 -50 48 3 47 3 0 45 0 45 50 0 50 0 0 -45 0 -45 48 -3
47 -3 0 100 0 100 -97 3 -98 3 0 45 0 45 -141 3 c-77 1 -143 -1 -147 -4z"/>
<path d="M6086 5651 c-4 -5 -3 -16 0 -25 3 -9 3 -27 0 -41 -6 -22 -12 -25 -51
-25 l-44 0 -3 -47 -3 -48 -47 -3 -48 -3 0 -145 0 -144 44 0 c41 0 45 2 51 29
3 15 5 32 4 37 -5 28 4 34 46 34 39 0 45 -3 51 -25 3 -14 3 -36 0 -50 -6 -22
-12 -25 -51 -25 l-45 0 0 -150 0 -150 45 0 45 0 0 150 0 150 49 0 50 0 3 48 3
47 98 3 97 3 0 50 c0 46 2 50 23 48 12 -1 34 -1 50 -1 25 2 27 5 27 47 l0 45
-50 0 -50 0 0 -45 c0 -39 -3 -45 -24 -51 -13 -3 -35 -4 -47 -2 -21 3 -24 9
-27 50 l-3 47 -47 3 -47 3 -3 98 -3 97 -44 0 c-24 0 -46 -4 -49 -9z"/>
<path d="M569 5553 c0 -5 -1 -26 -2 -48 l-2 -40 -47 -3 -48 -3 0 -45 0 -44 45
0 45 0 0 44 0 45 48 3 47 3 3 48 3 47 -45 0 c-26 0 -46 -3 -47 -7z"/>
<path d="M670 5416 c0 -42 1 -44 34 -48 50 -6 56 -1 56 48 l0 44 -45 0 -45 0
0 -44z"/>
<path d="M764 5361 c-2 -2 -4 -24 -4 -48 l0 -43 151 0 150 0 -3 46 -3 45 -143
2 c-79 1 -146 0 -148 -2z"/>
<path d="M5043 5362 l-43 -3 0 -45 0 -44 50 0 50 0 0 44 c0 25 -3 46 -7 48 -5
2 -27 2 -50 0z"/>
<path d="M6523 5362 l-43 -3 0 -45 0 -45 48 3 c45 3 47 4 50 35 5 47 -7 58
-55 55z"/>
<path d="M6779 5360 c0 -3 -1 -23 -2 -45 l-2 -40 48 -3 47 -3 0 44 0 45 -45 4
c-25 2 -45 1 -46 -2z"/>
<path d="M4800 5265 l0 -95 50 0 50 0 0 95 0 95 -50 0 -50 0 0 -95z"/>
<path d="M477 5264 c-4 -4 -7 -27 -7 -50 l0 -43 48 -3 47 -3 3 -47 3 -48 44 0
44 0 3 48 3 47 48 3 48 3 -3 47 -3 47 -135 3 c-75 2 -139 0 -143 -4z"/>
<path d="M1067 5264 c-4 -4 -7 -27 -7 -51 l0 -43 50 0 50 0 0 -50 0 -50 44 0
c40 0 44 2 47 28 9 61 1 72 -47 72 l-44 0 0 45 c0 25 -1 45 -2 46 -36 7 -85 9
-91 3z"/>
<path d="M3037 5263 c-4 -3 -7 -26 -7 -50 l0 -44 48 3 c41 3 47 6 50 27 2 12
1 34 -2 47 -5 20 -13 24 -45 24 -21 0 -41 -3 -44 -7z"/>
<path d="M5112 5262 c-7 -2 -12 -22 -12 -48 l0 -44 50 0 50 0 0 -50 0 -49 -97
-3 -98 -3 -3 -48 -3 -48 98 3 98 3 3 47 3 47 46 3 46 3 0 38 c-1 20 -2 42 -2
47 -1 6 -21 10 -46 10 l-45 0 0 45 c0 25 -3 45 -7 46 -37 4 -71 5 -81 1z"/>
<path d="M6584 5261 c-2 -2 -4 -24 -4 -48 l0 -44 48 3 47 3 -1 45 -1 45 -42 0
c-24 0 -45 -2 -47 -4z"/>
<path d="M967 5164 c-4 -4 -7 -27 -7 -50 l0 -43 -47 -3 -48 -3 -3 -97 -3 -97
-47 -3 -47 -3 -3 -92 -3 -91 78 -4 c131 -5 123 -12 123 97 l0 94 48 3 47 3 3
48 3 47 50 0 49 0 0 -50 0 -50 -51 0 -50 0 3 -47 3 -48 48 -3 47 -3 0 -44 0
-44 48 -3 47 -3 3 -52 3 -51 -38 3 c-56 4 -63 -2 -63 -52 l0 -44 48 3 47 3 5
45 5 45 48 1 48 1 -2 -98 -1 -99 -49 0 -48 0 -3 -47 -3 -48 -97 -3 -98 -3 0
50 0 50 48 3 47 3 0 45 0 45 -95 0 -95 0 -3 -97 -3 -97 -47 -3 -47 -3 -3 -48
-3 -48 -47 3 -47 3 -3 48 -3 47 -145 0 -144 0 0 -100 0 -100 45 0 45 0 0 50 0
50 55 0 55 0 0 -95 0 -95 44 0 45 0 3 47 3 47 95 0 95 1 3 98 3 97 49 0 49 0
3 -47 3 -48 48 -3 47 -3 0 -44 c0 -49 12 -58 68 -50 l33 4 -3 -52 -3 -52 -47
-3 -48 -3 0 -44 c0 -24 -4 -46 -9 -50 -6 -3 -28 -3 -50 1 -41 7 -41 7 -41 50
l0 44 -50 0 -50 0 0 -44 0 -45 -47 -3 -48 -3 -3 -48 -3 -48 -97 3 -97 3 -5 45
-5 45 -40 0 -40 0 -5 -45 -5 -45 -47 -3 -48 -3 0 -99 0 -99 48 -3 47 -3 3 -97
3 -98 49 0 c49 0 50 0 48 -32 -1 -60 1 -66 22 -61 11 3 31 2 44 -1 24 -6 25
-10 28 -99 l3 -92 148 -3 147 -3 0 -49 0 -50 -50 0 -50 0 0 -100 0 -100 -100
0 -100 0 0 -44 c0 -53 9 -58 102 -55 96 3 98 4 98 55 l0 44 198 0 198 0 -1
-47 0 -48 -47 -3 -48 -3 0 -45 0 -44 38 0 c53 0 64 -10 60 -56 l-3 -39 48 -3
47 -3 0 95 0 96 78 0 c114 0 122 4 122 56 l0 43 -97 3 -98 3 -3 97 -3 97 -47
3 -47 3 -1 45 0 45 -47 3 -46 3 -3 -98 -3 -98 -97 -3 -98 -3 0 50 0 50 48 3
47 3 0 45 0 45 -47 3 -48 3 0 49 0 49 98 3 97 3 5 45 5 45 44 1 44 1 1 44 1
44 48 3 47 3 0 -50 0 -51 -44 0 -45 0 -3 -85 c-2 -47 -1 -90 0 -95 2 -6 23
-10 47 -10 l44 0 3 48 3 47 47 3 47 3 3 47 c3 41 6 47 27 50 12 2 34 1 47 -2
21 -6 24 -12 24 -51 l0 -44 98 -3 97 -3 3 -47 3 -47 -98 -3 -98 -3 -3 -47 -3
-47 -47 -3 -47 -3 0 -45 0 -45 48 -3 47 -3 0 -44 c0 -39 3 -45 24 -51 13 -3
35 -4 47 -2 21 3 24 9 27 51 l3 47 -50 0 -51 0 0 50 0 51 98 -3 97 -3 3 -98 3
-98 42 3 c42 3 42 3 47 48 l5 45 47 3 47 3 3 47 3 47 98 3 97 3 0 49 0 49 -97
3 -98 3 0 45 0 45 145 0 145 0 3 -147 3 -148 -51 0 -50 0 0 -50 0 -50 -145 0
-145 0 0 -51 0 -51 40 3 c48 4 53 -1 54 -48 2 -38 2 -38 49 -41 l47 -3 0 45 0
46 50 0 50 0 0 -45 0 -45 50 0 50 0 0 45 0 45 -50 0 -50 0 0 50 0 50 140 0
c77 0 143 0 148 0 4 0 7 -21 7 -47 l0 -48 -47 -3 -47 -3 -3 -47 -3 -47 -47 -3
-47 -3 -3 -47 c-3 -46 -4 -47 -38 -48 -19 -1 -41 -2 -47 -3 -8 0 -13 -17 -13
-46 l0 -45 -44 0 c-48 0 -56 -9 -56 -65 0 -33 -1 -34 -47 -37 -47 -3 -48 -4
-49 -38 -1 -19 -2 -41 -3 -48 -1 -9 -15 -12 -48 -10 l-48 3 0 45 0 45 48 3 47
3 0 143 c0 78 -2 145 -4 147 -2 2 -68 3 -145 1 l-141 -3 0 -45 c0 -39 -3 -44
-22 -45 -13 0 -57 -1 -98 -2 l-75 -2 -3 -47 -3 -48 -94 0 c-109 0 -102 8 -97
-123 l4 -77 43 0 44 0 3 -47 3 -48 98 -3 97 -3 0 -49 0 -50 -100 0 -100 0 0
-44 0 -45 48 -3 47 -3 3 -47 3 -48 49 0 49 0 3 48 3 47 48 3 47 3 0 45 0 44
50 0 51 0 -3 -142 -3 -143 -45 -5 -45 -5 0 -145 0 -145 45 0 45 0 0 148 0 147
47 0 c43 0 47 2 53 29 3 15 5 32 4 37 -5 31 3 34 97 34 l95 0 -3 47 -3 46 -95
1 -95 1 -3 47 c-3 44 -1 48 20 49 13 0 57 1 98 2 l75 2 3 47 3 47 -48 3 -48 3
-3 48 -3 47 50 0 c55 0 51 5 55 -70 1 -23 6 -25 49 -28 l47 -3 0 50 0 51 101
0 100 0 -3 -47 -3 -48 -47 -3 -48 -3 0 -50 0 -49 -50 0 -50 0 0 -44 0 -45 48
-3 47 -3 3 -48 3 -47 100 0 99 0 0 -50 0 -50 50 0 50 0 0 -50 0 -50 -49 0 -50
0 -3 -47 -3 -48 -47 -3 -48 -3 0 50 0 50 48 3 47 3 0 45 0 45 -147 3 -148 3 0
50 0 50 -48 -3 c-39 -2 -47 -6 -48 -23 -1 -11 -2 -77 -3 -147 l-1 -128 -95 0
-95 0 0 -100 0 -100 45 2 45 1 0 49 0 48 49 0 50 0 3 -47 3 -48 95 -1 95 -2 3
-46 3 -46 50 0 49 0 0 95 0 95 50 0 50 0 0 -95 0 -95 34 0 c57 0 66 -8 66 -56
l0 -44 45 0 c25 0 45 -4 46 -10 0 -5 1 -27 2 -47 l0 -38 -46 -3 -47 -3 0 -50
0 -49 -49 0 -50 0 -3 -47 -3 -48 -97 -3 -97 -3 -3 48 -3 48 -47 3 -48 3 0 49
0 49 148 3 147 3 0 90 0 90 -47 3 -48 3 0 -45 0 -46 -49 0 -50 0 -3 46 -3 45
-195 2 -195 2 -2 35 c0 19 -1 41 -2 48 -1 9 -27 12 -96 12 l-95 0 0 -95 0 -95
-50 0 -50 0 0 145 0 145 -100 0 -100 0 0 49 0 50 -47 3 -48 3 0 45 0 45 48 3
47 3 0 145 0 144 -45 0 -45 0 0 -95 0 -95 -49 0 -50 0 -3 -47 -3 -48 -45 -5
-45 -5 -5 -45 -5 -45 -47 -3 -48 -3 0 50 0 51 51 0 50 0 -3 48 -3 47 -45 0
-45 0 -3 -47 -3 -48 -49 0 -49 0 -3 47 -3 48 -45 0 -45 0 -3 -47 -3 -48 -50 0
-49 0 0 49 0 50 -47 3 -48 3 0 95 0 95 48 3 47 3 0 44 0 44 -97 3 -98 3 -2 90
c-1 50 -2 93 -2 98 -1 4 -21 7 -46 7 l-45 0 0 -345 0 -345 45 0 45 0 0 51 0
50 53 -3 52 -3 3 -97 3 -98 44 0 45 0 0 -44 c0 -48 6 -53 60 -52 l35 1 3 98 3
97 49 0 49 0 3 -47 3 -48 98 -3 98 -3 -3 -47 -3 -47 -47 -3 -48 -3 0 -44 0
-44 98 -3 97 -3 3 -47 3 -48 44 0 44 0 3 48 3 47 95 0 95 0 3 -47 3 -48 50 0
49 0 0 -49 0 -50 -47 -3 -48 -3 0 -95 0 -95 45 0 45 0 3 48 3 47 50 0 49 0 0
-144 0 -143 42 -6 c23 -3 46 -3 51 0 4 3 7 46 6 96 l-2 92 97 3 c94 3 96 2 98
-20 1 -25 1 -59 -1 -70 0 -5 -21 -8 -46 -8 l-45 0 0 -95 0 -95 95 0 95 0 2
192 3 193 47 3 47 3 3 -98 3 -98 48 -3 48 -3 -3 -47 -3 -47 -47 -3 -48 -3 0
-50 0 -49 -51 0 -50 0 3 -43 3 -42 97 -3 97 -3 3 48 3 48 48 3 47 3 0 95 0 94
50 0 50 0 0 -145 0 -145 48 0 47 0 -3 145 -3 145 50 0 51 0 0 150 0 150 49 0
50 0 3 48 3 47 98 3 97 3 0 -51 0 -51 48 3 47 3 0 93 c0 102 -3 98 70 104 28
3 30 6 33 46 3 44 6 46 63 42 22 -1 27 4 30 27 9 62 1 73 -47 73 l-44 0 0 -50
0 -50 -50 0 -50 0 0 50 0 50 -101 0 -100 0 3 -47 3 -48 45 0 45 0 0 -50 0 -50
-95 0 -95 0 -3 98 -3 97 -49 0 -50 0 0 49 0 50 -47 3 -48 3 0 45 0 45 48 3 47
3 0 50 0 49 -45 0 c-48 0 -57 12 -52 70 2 23 -2 25 -45 28 l-48 3 0 94 0 94
47 3 48 3 1 48 1 47 -47 0 c-44 0 -48 2 -51 27 -2 16 -3 38 -1 51 3 22 6 22
147 22 l144 0 3 -47 3 -48 48 -3 47 -3 0 -95 0 -94 50 0 50 0 0 94 0 95 48 3
47 3 3 48 3 47 195 0 194 0 0 -50 0 -50 -44 0 c-53 0 -56 -6 -56 -100 0 -93 2
-96 55 -92 l45 4 0 44 0 44 100 0 100 0 0 -45 0 -45 100 0 100 0 0 95 0 94
-147 3 -148 3 -3 47 -3 47 98 3 98 3 3 191 2 192 -32 4 c-59 6 -67 1 -70 -50
l-3 -47 -45 0 -45 0 -3 -47 -3 -48 50 0 51 0 0 -50 0 -50 -100 0 -100 0 0 100
0 100 49 0 50 0 3 48 3 47 48 3 47 3 0 45 0 44 -46 0 c-37 0 -47 4 -51 20 -5
18 -14 20 -98 20 -70 0 -94 -3 -98 -14 -8 -21 2 -26 50 -26 l43 0 0 -94 0 -95
-47 -3 -48 -3 -3 -97 -3 -98 -192 -2 -192 -3 -3 -97 -3 -98 -49 0 -50 0 0 50
0 50 -50 0 -50 0 0 50 0 50 -50 0 -50 0 0 50 0 50 -45 0 -45 0 0 -50 0 -50
-100 0 -101 0 3 98 3 97 143 3 142 3 0 47 0 47 -45 -3 c-40 -4 -45 -2 -50 21
-4 14 -5 36 -3 48 3 21 9 24 51 27 l47 3 0 -35 c0 -54 14 -61 113 -58 l87 3 0
44 0 44 -47 3 -48 3 -5 45 -5 45 -45 5 -45 5 0 45 c0 42 2 45 28 48 l27 3 0
100 0 100 -27 -3 c-26 -3 -28 -7 -31 -50 l-3 -48 -145 0 -144 0 0 50 0 50 145
0 145 0 0 50 0 50 -145 0 -145 0 0 44 c0 28 5 46 14 49 7 3 71 5 142 4 l129
-2 5 -45 c4 -40 8 -45 33 -48 26 -3 27 -2 27 42 0 44 -1 46 -30 46 -29 0 -30
1 -30 50 l0 50 -94 0 -94 0 -4 33 c-6 58 -1 66 50 69 46 3 47 4 48 38 1 60 1
60 48 60 l45 0 3 -47 c3 -44 5 -48 31 -51 l27 -3 0 100 0 101 -75 0 -75 0 0
-50 0 -50 -50 0 -50 0 0 -50 0 -50 -50 0 -50 0 0 -100 0 -101 -147 3 -148 3
-3 48 -3 47 -94 0 -94 0 -3 -47 -3 -48 -47 -3 -47 -3 -3 48 -3 48 -47 3 -47 3
-3 -48 -3 -48 -47 -3 -48 -3 0 50 0 50 -47 3 -48 3 -3 47 -3 47 -97 3 -97 3 0
45 0 45 48 3 47 3 0 50 0 49 -51 0 -50 0 3 48 3 47 97 3 97 3 3 47 3 47 195 5
195 5 -1 40 c0 37 -3 40 -30 43 -68 6 -70 8 -68 59 l2 48 43 0 c51 0 47 -13
51 175 l3 115 98 3 98 3 -3 47 -3 47 -47 3 -48 3 0 43 c0 47 -8 55 -50 50 -14
-1 -28 -3 -32 -3 -5 -1 -8 -21 -8 -46 l0 -45 -49 0 -50 0 -3 -47 -3 -48 -48
-3 -48 -3 3 98 3 98 95 1 95 2 -1 33 c-2 65 -1 64 -50 64 l-46 0 -2 95 -1 95
-47 3 -47 3 -3 -98 -3 -98 -97 -3 -97 -3 -3 -46 -3 -46 -90 2 c-49 1 -94 6
-98 10 -4 4 -7 46 -5 92 l3 84 45 5 45 5 3 48 3 47 49 0 49 0 3 -47 3 -48 45
0 45 0 3 48 3 47 -50 0 -51 0 0 50 0 50 50 0 50 0 0 50 0 49 148 3 147 3 0 45
0 45 -145 0 -145 0 -3 -47 -3 -47 -47 -3 -47 -3 -3 -47 -3 -48 -50 0 -49 0 0
50 0 50 -95 0 -95 0 0 -50 0 -50 95 0 95 0 0 -50 0 -50 -94 0 -95 0 -3 -47 -3
-48 -47 -3 -48 -3 0 50 0 51 43 0 c24 0 46 2 48 4 2 3 3 25 1 50 l-4 46 -43 0
-44 0 -3 48 -3 47 -47 3 -47 3 -3 47 -3 47 -40 3 c-23 2 -44 0 -48 -4z m585
-731 l3 -48 98 -3 97 -3 0 -49 0 -50 -50 0 -50 0 0 -50 0 -50 101 0 100 0 -3
-47 -3 -48 -97 -3 -97 -3 -3 -47 -3 -47 -97 -3 -98 -3 0 -45 0 -45 -47 3 -48
3 0 45 0 45 48 3 47 3 0 95 0 94 -44 0 c-53 0 -56 6 -56 100 0 94 3 100 56
100 l44 0 0 43 c0 24 3 47 7 50 3 4 26 7 49 7 l43 0 3 -47z m-194 -300 l-3
-48 -45 0 -45 0 -3 48 -3 47 51 0 51 0 -3 -47z m-103 -493 l0 -145 -147 -3
-148 -3 0 151 0 151 148 -3 147 -3 0 -145z m-395 -243 c0 -52 2 -96 4 -98 3
-2 25 -3 50 -1 l46 4 0 43 0 44 123 3 c183 5 177 6 177 -53 l0 -49 -150 0
-150 0 0 -45 0 -45 -50 0 -50 0 0 45 0 45 -50 0 -50 0 0 100 0 100 50 0 50 0
0 -93z m1088 -939 l3 -48 -50 0 -50 0 -3 -97 -3 -98 -147 -3 -148 -3 0 51 0
50 50 0 50 0 0 50 0 50 101 0 101 0 -2 43 c-1 23 -1 46 -1 50 1 4 22 7 49 5
l47 -3 3 -47z m-591 -988 l0 -51 -51 3 -51 3 -1 40 c-1 22 0 43 3 48 2 4 26 7
52 7 l48 0 0 -50z m983 0 l0 -50 -50 0 -50 0 0 50 0 50 50 0 50 0 0 -50z
m-890 -101 l0 -50 -47 3 c-46 3 -48 4 -51 36 -5 53 2 62 53 62 l45 0 0 -51z
m1283 9 c-1 -21 -2 -42 -2 -48 -1 -5 -21 -10 -46 -10 -39 0 -45 3 -51 25 -3
14 -3 36 0 51 6 23 11 25 53 22 l46 -3 0 -37z m-885 -345 l-3 -98 -47 -3 -48
-3 0 100 0 101 50 0 51 0 -3 -97z m193 90 c0 -5 1 -48 1 -98 l1 -90 -49 0 -49
0 -1 90 c-1 50 0 93 3 98 2 4 24 7 49 7 24 0 44 -3 45 -7z m199 -43 l0 -50
-50 0 -50 0 0 43 c0 24 3 47 7 50 3 4 26 7 50 7 l43 0 0 -50z"/>
<path d="M1457 4273 c-4 -3 -7 -26 -7 -50 l0 -43 49 0 50 0 3 -47 c3 -42 6
-48 27 -51 12 -2 34 -1 47 2 21 6 24 12 24 51 l0 45 -50 0 -50 0 0 50 0 50
-43 0 c-24 0 -47 -3 -50 -7z"/>
<path d="M1060 3640 l0 -51 48 3 47 3 0 45 0 45 -47 3 -48 3 0 -51z"/>
<path d="M6187 5163 c-3 -4 -4 -26 -3 -48 l1 -40 98 -3 98 -3 -3 48 -3 48 -92
3 c-50 1 -93 -1 -96 -5z"/>
<path d="M6678 5123 l-3 -48 -97 -3 -98 -3 0 -49 0 -50 -145 0 c-168 0 -158 8
-153 -120 l3 -75 95 0 95 0 3 47 3 47 47 3 47 3 3 48 3 47 50 0 50 0 -3 -147
-3 -148 -47 -3 -48 -3 0 -45 0 -45 98 3 97 3 0 90 0 90 45 5 45 5 3 48 3 47
-44 0 c-24 0 -46 2 -48 4 -2 3 -3 25 -1 50 l4 46 94 0 94 0 0 49 0 50 -47 3
-48 3 -3 48 -3 47 -44 0 -44 0 -3 -47z"/>
<path d="M669 5063 c-1 -5 -1 -19 -1 -33 -1 -59 0 -60 47 -60 l45 0 0 50 0 50
-45 0 c-25 0 -45 -3 -46 -7z"/>
<path d="M1950 4875 c0 -107 3 -195 8 -196 4 0 23 -2 42 -4 19 -1 38 -3 42 -4
4 0 4 -17 1 -36 -9 -53 -2 -61 51 -57 l46 4 0 93 0 94 -47 3 -48 3 0 45 0 45
48 3 47 3 0 50 0 49 -50 0 -50 0 0 50 0 50 -45 0 -45 0 0 -195z"/>
<path d="M5300 5020 l0 -50 45 0 45 0 0 50 0 50 -45 0 -45 0 0 -50z"/>
<path d="M472 4873 l3 -98 45 -5 45 -5 0 -40 c0 -39 1 -40 40 -45 22 -3 43 -4
48 -2 4 2 7 68 7 148 l0 144 -95 0 -96 0 3 -97z"/>
<path d="M4510 4725 c0 -44 3 -47 35 -47 66 0 65 -1 63 47 l-1 45 -49 0 -48 0
0 -45z"/>
<path d="M6774 4748 c3 -13 5 -78 5 -145 l1 -123 45 0 45 0 0 145 0 145 -50 0
c-46 0 -50 -2 -46 -22z"/>
<path d="M4648 4672 c-38 -3 -38 -4 -38 -48 0 -43 0 -44 34 -44 19 0 41 -3 50
-6 13 -5 15 2 11 41 -2 26 -7 51 -12 54 -4 3 -25 5 -45 3z"/>
<path d="M470 4625 l0 -45 44 0 c49 0 54 6 48 56 -4 33 -6 34 -48 34 l-44 0 0
-45z"/>
<path d="M669 4666 c-2 -2 -3 -45 -1 -95 l3 -91 44 0 44 0 3 -47 3 -48 48 -3
48 -3 -3 98 -3 98 -45 0 -45 0 -3 48 -3 47 -43 0 c-23 0 -45 -2 -47 -4z"/>
<path d="M960 4625 l0 -45 90 0 c50 0 93 -1 98 -2 4 -2 8 18 10 45 l3 47 -100
0 -101 0 0 -45z"/>
<path d="M4410 4596 l0 -74 33 -4 c17 -3 39 -7 47 -9 12 -3 16 11 18 79 l3 82
-51 0 -50 0 0 -74z"/>
<path d="M5690 4622 l0 -48 48 2 47 2 3 46 3 46 -50 0 -51 0 0 -48z"/>
<path d="M2253 4573 c-8 -3 -13 -22 -13 -49 l0 -44 51 0 50 0 -3 48 c-3 46 -3
47 -38 48 -19 0 -41 -1 -47 -3z"/>
<path d="M4715 4568 c-2 -7 -6 -29 -7 -48 -3 -34 -4 -35 -50 -38 l-48 -3 0
-45 c0 -37 -4 -47 -20 -51 -19 -5 -20 -14 -20 -155 l0 -149 63 3 62 3 5 95 5
95 47 3 47 3 3 47 3 47 48 3 48 3 -3 47 -3 47 -47 3 -48 3 0 50 0 49 -40 0
c-24 0 -42 -5 -45 -12z"/>
<path d="M477 4473 c-4 -3 -7 -26 -7 -50 l0 -43 94 0 94 0 3 28 c10 69 6 72
-90 72 -48 0 -91 -3 -94 -7z"/>
<path d="M2447 4474 c-4 -4 -7 -27 -7 -51 l0 -44 48 3 47 3 0 45 0 45 -40 3
c-23 2 -44 0 -48 -4z"/>
<path d="M6779 4095 c-1 -47 -2 -91 -3 -97 -1 -8 -20 -14 -48 -16 l-48 -3 0
-44 0 -44 47 -3 48 -3 1 -40 c1 -22 3 -43 3 -47 1 -5 21 -8 46 -8 l45 0 0 195
0 195 -45 0 -45 0 -1 -85z"/>
<path d="M3835 4133 c-49 -13 -112 -31 -140 -38 -27 -8 -88 -26 -135 -40 -47
-15 -98 -30 -115 -34 -56 -15 65 -22 320 -19 l240 3 0 68 c0 98 -15 103 -170
60z"/>
<path d="M5400 4038 c0 -36 4 -48 15 -49 8 0 44 0 80 0 36 0 72 0 80 0 11 1
15 13 15 45 l0 45 -95 3 -95 3 0 -47z"/>
<path d="M1060 4036 c0 -25 3 -47 8 -49 4 -2 26 -2 50 1 l42 4 0 44 0 44 -50
0 -50 0 0 -44z"/>
<path d="M4643 3983 c-32 -4 -33 -6 -33 -49 l0 -44 45 0 c36 0 45 4 47 18 0 9
2 24 3 32 2 19 -13 51 -23 48 -4 0 -22 -3 -39 -5z"/>
<path d="M760 3935 l0 -45 50 0 50 0 0 45 0 45 -50 0 -50 0 0 -45z"/>
<path d="M2040 3885 l0 -94 -92 -3 -93 -3 -3 -47 -3 -48 -50 0 -49 0 0 -50 0
-50 -51 0 -50 0 3 -47 3 -48 45 0 45 0 3 48 3 48 47 -3 47 -3 3 -97 3 -98 37
0 c20 0 42 4 47 8 6 4 10 48 10 97 l0 90 48 3 c51 3 47 9 51 -73 1 -19 8 -20
146 -20 l145 0 3 47 3 47 -98 3 -98 3 0 95 0 95 48 3 47 3 0 -50 0 -51 50 0
50 0 0 145 0 145 -150 0 -150 0 0 -95z"/>
<path d="M3253 3943 c-18 -8 -35 -25 -39 -36 -4 -11 -6 -136 -6 -276 0 -374
-2 -348 27 -376 l24 -25 420 0 419 0 26 31 c25 29 27 37 24 118 l-3 86 -30 3
c-56 7 -65 25 -65 127 0 85 2 92 23 103 12 6 33 12 47 14 24 3 25 7 28 73 4
84 -9 135 -40 155 -35 23 -809 26 -855 3z m414 -144 c36 -13 81 -56 98 -94 26
-56 37 -114 25 -134 -5 -11 -10 -28 -10 -39 0 -35 -31 -82 -75 -112 -38 -26
-52 -30 -112 -30 -88 0 -146 33 -180 102 -39 77 -27 188 25 246 60 67 151 91
229 61z m256 -11 c15 -12 15 -26 5 -151 l-12 -138 -25 3 c-25 3 -26 6 -32 93
-4 50 -8 112 -10 139 -3 42 0 50 16 57 29 11 39 10 58 -3z m-3 -353 c0 -32 -2
-35 -30 -35 -32 0 -32 0 -35 43 -2 24 1 27 31 27 32 0 34 -2 34 -35z"/>
<path d="M3511 3705 c-85 -73 -53 -225 52 -240 65 -10 109 12 136 67 11 24 21
54 21 66 0 37 -39 108 -66 121 -45 20 -109 14 -143 -14z"/>
<path d="M4570 3839 c0 -43 3 -50 18 -47 22 4 30 77 10 89 -24 16 -28 9 -28
-42z"/>
<path d="M1557 3784 c-4 -4 -7 -27 -7 -51 l0 -43 51 0 50 0 -3 48 -3 47 -40 3
c-23 2 -44 0 -48 -4z"/>
<path d="M2447 3783 c-4 -3 -7 -49 -7 -100 l0 -94 48 3 47 3 3 75 c4 108 0
120 -47 120 -21 0 -41 -3 -44 -7z"/>
<path d="M4082 3593 l3 -78 35 0 35 0 0 75 0 75 -38 3 -38 3 3 -78z"/>
<path d="M4570 3540 c0 -44 3 -51 18 -48 13 3 17 13 17 48 0 35 -4 45 -17 48
-15 3 -18 -4 -18 -48z"/>
<path d="M4610 3390 c0 -93 -1 -100 -20 -100 -19 0 -20 -7 -20 -146 0 -133 1
-145 18 -142 13 2 18 15 20 50 l3 47 46 3 c50 3 57 14 46 70 -5 26 -9 28 -49
28 l-44 0 0 45 c0 47 0 48 59 49 l34 1 -1 85 c-1 47 -1 91 -2 98 0 8 -16 12
-45 12 l-45 0 0 -100z"/>
<path d="M470 3343 l0 -48 47 0 48 0 0 -48 0 -47 48 0 47 0 0 44 0 45 -47 3
-48 3 0 45 0 45 -47 3 -48 3 0 -48z"/>
<path d="M6680 3150 l0 -50 45 0 45 0 0 50 0 50 -45 0 -45 0 0 -50z"/>
<path d="M470 3051 l0 -50 48 -3 47 -3 0 -45 0 -45 -48 -3 -48 -3 3 -97 3 -97
45 -5 45 -5 0 -43 0 -42 98 0 97 0 0 45 0 45 -98 0 -99 0 1 50 0 49 95 3 96 3
3 47 3 47 -48 3 -48 3 -3 98 -3 97 -94 0 -95 0 0 -49z"/>
<path d="M4904 3087 c-3 -9 -4 -30 -2 -49 3 -32 5 -33 51 -36 l47 -3 0 -50 0
-50 -47 3 -48 3 -3 48 -3 48 -47 -3 -47 -3 -3 -48 -3 -48 -47 3 -47 3 0 45 0
45 -47 3 -47 3 -3 -98 -3 -98 -30 -3 c-42 -5 -65 -29 -65 -69 l0 -33 -100 0
-100 0 0 -195 0 -195 -95 0 -94 0 -6 -32 c-3 -18 -5 -85 -3 -148 l3 -115 98
-3 97 -3 0 -94 0 -95 100 0 100 0 0 -49 0 -50 48 -3 47 -3 3 -47 3 -48 45 0
c43 0 44 1 45 33 2 63 2 62 51 65 l47 3 3 -48 3 -48 48 -3 48 -3 -3 48 -3 48
-48 3 -48 3 3 47 3 47 98 3 97 3 0 94 c0 69 3 95 13 96 6 1 28 2 47 3 34 1 35
2 38 49 l3 47 -100 0 -101 0 0 -51 0 -50 -47 3 -48 3 -3 148 -3 147 51 0 50 0
0 101 c0 98 -1 100 -22 99 -73 -6 -78 -3 -78 45 l0 45 -45 0 -45 0 -2 -192 -3
-193 -47 -3 -48 -3 0 -50 0 -49 51 0 50 0 -3 -47 -3 -48 -47 -3 -48 -3 0 -95
0 -94 -50 0 -50 0 0 145 0 145 -50 0 -50 0 0 -50 0 -50 -50 0 -50 0 0 150 0
150 50 0 50 0 0 -51 0 -50 48 3 47 3 3 47 3 47 47 3 47 3 0 45 0 45 -47 3 -48
3 0 -50 0 -51 -50 0 -51 0 3 148 3 147 45 1 45 0 3 47 3 47 82 1 c45 1 89 2
97 3 11 1 15 13 15 46 l1 45 144 5 145 5 3 48 3 47 49 0 49 0 3 -47 3 -48 45
0 45 0 3 48 3 47 -50 0 -50 0 -3 48 -3 47 -47 3 -47 3 -3 47 -3 47 -43 3 c-30
2 -44 -1 -48 -11z"/>
<path d="M6580 2950 l0 -50 -101 0 -100 0 3 -47 3 -48 75 -3 c111 -4 120 -1
120 53 l0 44 48 3 c45 3 47 5 48 33 3 57 -4 65 -52 65 l-44 0 0 -50z"/>
<path d="M6779 2993 c-1 -5 0 -16 1 -27 1 -10 -1 -29 -4 -42 -6 -21 -12 -24
-52 -24 l-45 0 3 -47 3 -48 90 0 90 0 3 98 3 97 -46 0 c-25 0 -46 -3 -46 -7z"/>
<path d="M5002 2753 l3 -48 45 0 45 0 3 48 3 47 -51 0 -51 0 3 -47z"/>
<path d="M6278 2653 l-3 -148 -45 0 -45 0 0 -145 0 -145 48 -3 47 -3 0 50 0
51 49 0 50 0 3 -47 3 -48 48 -3 48 -3 -3 -97 -3 -97 -47 -3 -48 -3 0 -45 0
-44 195 0 195 0 0 195 0 195 -45 0 -44 0 -3 -147 -3 -148 -47 -3 -48 -3 0 150
0 150 48 3 c46 3 47 4 48 38 1 19 2 41 3 48 1 9 15 12 49 10 l47 -3 0 -45 0
-45 48 -3 47 -3 0 146 0 146 -47 -3 c-45 -3 -48 -5 -45 -28 7 -61 1 -65 -100
-65 l-93 0 -3 -47 -3 -48 -50 0 -49 0 0 45 c0 29 -5 45 -12 46 -53 5 -74 7
-80 8 -5 0 -8 66 -8 146 l0 145 -50 0 -49 0 -3 -147z"/>
<path d="M6578 2753 l-3 -48 -47 -3 -48 -3 0 -95 0 -94 49 0 48 0 0 39 c0 21
3 44 7 50 5 7 41 11 97 11 l89 0 0 44 0 45 -47 3 -47 3 3 48 3 47 -51 0 -50 0
-3 -47z"/>
<path d="M3127 2720 c-4 -16 -14 -20 -51 -20 l-45 0 -3 -97 -3 -97 -95 -1 -95
0 -3 -47 -3 -48 150 0 150 0 3 98 3 97 48 3 47 3 0 65 0 64 -49 0 c-40 0 -50
-3 -54 -20z"/>
<path d="M3920 2721 c0 -17 8 -20 47 -23 46 -3 46 -3 50 -42 3 -48 3 -47 47
-50 43 -2 43 -2 48 -51 4 -40 4 -40 51 -43 l47 -3 0 115 0 116 -145 0 c-137 0
-145 -1 -145 -19z"/>
<path d="M1060 2655 l0 -45 50 0 50 0 0 45 0 45 -50 0 -50 0 0 -45z"/>
<path d="M1650 2655 l0 -45 50 0 50 0 0 45 0 45 -50 0 -50 0 0 -45z"/>
<path d="M3330 2655 l0 -45 44 0 c48 0 55 9 48 63 -4 25 -8 27 -48 27 l-44 0
0 -45z"/>
<path d="M4800 2655 l0 -45 50 0 50 0 0 45 0 45 -50 0 -50 0 0 -45z"/>
<path d="M3963 2602 l-43 -3 0 -145 0 -144 44 0 45 0 3 141 c2 78 1 144 -2
148 -3 3 -24 5 -47 3z"/>
<path d="M760 2505 l0 -95 -95 0 -95 0 0 -100 0 -100 95 0 95 0 0 100 0 100
49 0 50 0 3 -47 3 -48 95 0 95 0 3 48 3 47 95 0 94 0 2 43 c1 23 3 66 3 95 l1
52 -48 0 -48 0 0 -44 c0 -38 -3 -45 -25 -50 -14 -4 -36 -4 -50 0 -22 5 -25 12
-25 50 l0 44 -150 0 -150 0 0 -95z m200 -45 l0 -50 -50 0 -50 0 0 43 c0 24 3
47 7 50 3 4 26 7 50 7 l43 0 0 -50z"/>
<path d="M2142 2555 l-2 -45 50 0 50 0 0 45 0 45 -48 0 -49 0 -1 -45z"/>
<path d="M477 2503 c-4 -3 -7 -26 -7 -50 l0 -43 45 0 45 0 0 50 0 50 -38 0
c-21 0 -42 -3 -45 -7z"/>
<path d="M1060 2260 l0 -49 -97 -3 -98 -3 0 -45 0 -45 48 -3 47 -3 0 -145 0
-144 100 0 100 0 0 39 c0 46 -9 54 -59 55 -36 1 -36 1 -39 49 -2 28 1 47 7 48
6 1 22 1 36 1 55 0 55 0 55 -47 l0 -45 98 0 97 0 -3 95 -3 95 -145 0 -144 0 0
50 0 50 95 0 95 0 0 50 0 50 -95 0 -95 0 0 -50z"/>
<path d="M5200 2015 l0 -195 44 0 c31 0 46 5 50 16 8 21 8 303 0 343 -6 29 -9
31 -50 31 l-44 0 0 -195z"/>
<path d="M764 2096 c-3 -8 -4 -29 -2 -48 3 -32 4 -33 48 -33 l45 0 3 48 3 47
-46 0 c-30 0 -47 -5 -51 -14z"/>
<path d="M3130 1965 l0 -45 50 0 50 0 0 45 0 45 -50 0 -50 0 0 -45z"/>
<path d="M773 1913 c-8 -3 -13 -23 -13 -49 l0 -44 51 0 50 0 -3 47 c-3 45 -4
46 -38 48 -19 1 -41 0 -47 -2z"/>
<path d="M2763 1912 l-33 -3 0 -79 c0 -43 3 -85 6 -94 5 -14 28 -16 151 -16
l144 0 -3 48 -3 47 -97 3 -97 3 -3 46 c-3 49 -6 51 -65 45z"/>
<path d="M3334 1905 c-2 -5 -5 -48 -6 -95 l-3 -85 -47 -3 -48 -3 0 -50 0 -49
144 0 145 0 3 -47 3 -48 95 0 95 0 3 98 3 97 99 0 100 0 0 -50 0 -50 45 0 45
0 0 50 0 50 -44 0 -45 0 -3 48 -3 47 -245 2 -245 2 -3 44 c-3 45 -3 45 -44 49
-22 2 -42 -1 -44 -7z"/>
<path d="M4038 1913 c-13 -3 -17 -19 -20 -82 -4 -111 -4 -111 48 -111 24 0 44
-3 45 -7 0 -5 2 -26 3 -48 l1 -40 47 -3 47 -3 3 -47 3 -47 45 0 45 0 0 145 0
145 -47 3 -48 3 0 45 0 44 -64 0 c-35 0 -70 2 -78 4 -7 2 -21 2 -30 -1z"/>
<path d="M6185 1801 c-3 -10 -5 -23 -4 -27 7 -43 -1 -53 -48 -56 l-46 -3 0
-45 0 -45 46 -3 46 -3 3 -47 3 -47 47 -3 47 -3 3 98 3 98 48 3 47 3 0 -51 0
-51 98 3 97 3 0 45 0 45 -97 3 -97 3 -3 47 -3 47 -92 3 c-83 2 -92 1 -98 -17z"/>
<path d="M6779 1801 c-1 -12 -1 -30 -1 -41 0 -11 0 -24 1 -30 1 -5 21 -10 47
-10 l45 0 -3 47 -3 47 -42 4 c-38 3 -43 1 -44 -17z"/>
<path d="M1554 1707 c-2 -7 -4 -52 -2 -98 l3 -84 45 0 45 0 0 95 0 95 -43 3
c-29 2 -44 -1 -48 -11z"/>
<path d="M6680 1670 l0 -50 45 0 45 0 0 50 0 50 -45 0 -45 0 0 -50z"/>
<path d="M2834 1606 c-3 -8 -4 -29 -2 -48 l3 -33 95 0 95 0 0 45 0 45 -93 3
c-73 2 -93 0 -98 -12z"/>
<path d="M3130 1570 l0 -51 48 3 47 3 0 45 0 45 -47 3 -48 3 0 -51z"/>
<path d="M3330 1470 l0 -50 45 0 45 0 0 50 0 50 -45 0 -45 0 0 -50z"/>
<path d="M3920 1470 l0 -50 -49 0 -50 0 -3 -47 -3 -48 -47 -3 -48 -3 0 50 0
51 -145 0 c-143 0 -145 0 -146 -22 -3 -77 0 -73 -52 -76 l-48 -3 3 -47 3 -47
43 3 42 4 0 -51 0 -51 -95 0 -95 0 0 -49 0 -50 48 -3 47 -3 3 -47 3 -47 47 -3
c46 -3 47 -4 48 -38 2 -60 2 -60 48 -60 l45 0 3 -47 3 -48 97 -3 97 -3 3 -46
3 -46 90 1 c50 1 94 1 98 2 5 0 7 19 5 43 l-3 42 -97 3 -98 3 0 49 0 49 98 3
97 3 3 48 3 47 45 0 44 0 0 50 0 50 -45 0 -45 0 0 50 0 50 45 0 45 0 0 45 0
45 -45 0 -45 0 0 100 0 100 45 0 45 0 0 50 0 50 -45 0 -45 0 0 -50z m-102
-392 l3 -148 -151 0 -150 0 0 144 c0 106 3 146 13 150 6 2 73 4 147 3 l135 -2
3 -147z"/>
<path d="M3627 1124 c-4 -4 -7 -27 -7 -51 l0 -43 51 0 50 0 -3 48 -3 47 -40 3
c-23 2 -44 0 -48 -4z"/>
<path d="M4114 1506 c-3 -8 -4 -29 -2 -48 3 -32 4 -33 48 -33 l45 0 3 48 3 47
-46 0 c-30 0 -47 -5 -51 -14z"/>
<path d="M4314 1507 c-3 -9 -4 -30 -2 -49 3 -32 4 -33 48 -33 l45 0 0 45 0 45
-43 3 c-30 2 -44 -1 -48 -11z"/>
<path d="M472 1373 l3 -48 45 -5 c45 -5 45 -5 48 -47 l3 -43 95 0 94 0 0 45 0
45 -100 0 -101 0 3 48 3 47 -48 3 -48 3 3 -48z"/>
<path d="M4017 1406 c-6 -14 0 -63 8 -76 2 -3 21 -5 42 -5 l38 0 3 48 3 47
-44 0 c-30 0 -47 -5 -50 -14z"/>
<path d="M860 1275 l0 -45 50 0 50 0 0 45 0 45 -50 0 -50 0 0 -45z"/>
<path d="M5690 1275 l0 -45 50 0 50 0 0 45 0 45 -50 0 -50 0 0 -45z"/>
<path d="M4119 1214 c-5 -7 -9 -50 -7 -96 l3 -83 98 -3 98 -3 -3 48 -3 48 -47
3 -48 3 0 43 0 44 -41 4 c-23 2 -44 -1 -50 -8z"/>
<path d="M470 785 l0 -345 343 2 342 3 0 340 0 340 -342 3 -343 2 0 -345z
m585 -5 l0 -245 -225 -3 c-124 -1 -235 0 -247 3 l-23 5 0 239 c0 131 3 241 7
245 4 3 115 5 247 4 l241 -3 0 -245z"/>
<path d="M668 785 l-3 -145 148 0 147 0 0 145 0 145 -144 0 -145 0 -3 -145z"/>
<path d="M1359 1118 c-1 -7 -1 -30 0 -50 l3 -38 -51 0 -51 0 0 -49 0 -50 48
-3 c46 -3 47 -4 49 -38 1 -19 2 -41 2 -47 1 -9 17 -13 46 -13 l44 0 3 -97 3
-96 45 -1 45 -1 3 98 3 97 -51 0 -50 0 0 150 0 150 -45 0 c-29 0 -46 -5 -46
-12z"/>
<path d="M2837 1024 c-4 -4 -7 -72 -7 -150 l0 -143 -47 -3 -48 -3 0 -90 0 -90
145 -5 145 -5 3 -47 3 -48 50 0 49 0 0 99 0 100 28 -1 c72 -1 72 -1 72 47 l0
45 -100 0 -100 0 0 50 0 49 98 3 97 3 0 45 0 45 -97 3 -97 3 -3 47 -3 47 -90
3 c-50 1 -94 0 -98 -4z m91 -341 l-3 -48 -45 0 -45 0 -3 48 -3 47 51 0 51 0
-3 -47z"/>
<path d="M6778 1023 c-2 -5 -3 -26 -3 -48 l0 -40 48 -3 47 -3 0 50 0 51 -44 0
c-25 0 -46 -3 -48 -7z"/>
<path d="M4114 917 c-2 -7 -3 -29 -2 -48 3 -34 3 -34 -44 -37 l-46 -3 -4 -46
c-2 -26 1 -47 7 -50 6 -2 72 -2 146 -1 l134 3 3 47 3 47 -48 3 -48 3 -3 48 -3
47 -45 0 c-27 0 -47 -5 -50 -13z"/>
<path d="M4314 916 c-3 -8 -4 -29 -2 -48 3 -32 5 -33 50 -36 l47 -3 3 -96 3
-96 45 0 45 0 0 144 0 144 -93 3 c-73 2 -93 0 -98 -12z"/>
<path d="M6580 830 l0 -101 48 3 47 3 0 95 0 95 -47 3 -48 3 0 -101z"/>
<path d="M3330 685 l0 -45 95 0 95 0 0 45 0 45 -95 0 -95 0 0 -45z"/>
<path d="M5398 683 l-3 -48 -47 -3 -47 -3 -3 -47 -3 -47 -47 -3 -48 -3 0 -45
0 -44 195 0 195 0 0 44 0 45 -47 3 -48 3 -3 98 -3 97 -44 0 -44 0 -3 -47z"/>
<path d="M5592 638 l3 -93 48 -3 47 -3 0 95 0 96 -50 0 -51 0 3 -92z"/>
<path d="M6682 684 l3 -47 43 -1 42 -1 0 48 0 47 -46 0 -45 0 3 -46z"/>
<path d="M1550 585 l0 -45 50 0 50 0 0 45 0 45 -50 0 -50 0 0 -45z"/>
<path d="M3230 535 l0 -95 95 0 95 0 0 45 c0 43 -1 45 -30 46 -57 3 -64 8 -66
47 -1 15 -2 33 -3 40 -1 7 -17 12 -46 12 l-45 0 0 -95z"/>
<path d="M4020 585 l0 -45 195 0 195 0 0 45 0 45 -195 0 -195 0 0 -45z"/>
<path d="M6778 618 c-3 -7 -4 -26 -3 -43 2 -28 4 -30 48 -33 l47 -3 0 45 0 46
-44 0 c-26 0 -46 -5 -48 -12z"/>
<path d="M1445 532 c-44 -2 -82 -8 -86 -14 -4 -5 -6 -24 -5 -42 l2 -31 97 -3
97 -3 0 45 c0 26 -5 45 -12 47 -7 2 -49 3 -93 1z"/>
<path d="M1663 533 c-8 -3 -13 -23 -13 -49 l0 -44 50 0 50 0 0 45 c0 41 -2 45
-24 45 -13 0 -30 2 -38 4 -7 3 -19 2 -25 -1z"/>
<path d="M3736 532 c-12 -3 -16 -15 -16 -48 l0 -44 145 0 145 0 0 44 0 45
-129 3 c-70 2 -136 2 -145 0z"/>
<path d="M4578 532 l-68 -3 0 -44 0 -45 95 0 95 0 1 28 c1 26 -1 56 -4 58 -9
6 -65 9 -119 6z"/>
<path d="M6584 531 c-2 -2 -4 -24 -4 -48 l0 -44 48 3 c47 3 47 3 48 41 1 20
-3 40 -9 44 -11 7 -77 10 -83 4z"/>
<path d="M3520 485 l0 -45 50 0 50 0 0 45 0 45 -50 0 -50 0 0 -45z"/>
</g>
</svg>
